Exact Audio Copy V0.99 prebeta 4 from 23. January 2008

EAC extraction logfile from 2. May 2009, 18:52

Ajattara / Itse

Used drive  : ATAPI   DVD+/-R/RW8XMAX   Adapter: 0  ID: 0

Read mode               : Secure
Utilize accurate stream : Yes
Defeat audio cache      : Yes
Make use of C2 pointers : No

Read offset correction                      : 12
Overread into Lead-In and Lead-Out          : No
Fill up missing offset samples with silence : Yes
Delete leading and trailing silent blocks   : No
Null samples used in CRC calculations       : Yes
Used interface                              : Native Win32 interface for Win NT & 2000
Gap handling                                : Appended to previous track

Used output format              : User Defined Encoder
Selected bitrate                : 128 kBit/s
Quality                         : High
Add ID3 tag                     : No
Command line compressor         : C:\Program Files (x86)\Exact Audio Copy\Flac\flac.exe
Additional command line options : -V -8 -T "artist=%a" -T "title=%t" -T "album=%g" -T "date=%y" -T "tracknumber=%n" -T "genre=%m" %s


TOC of the extracted CD

     Track |   Start  |  Length  | Start sector | End sector 
    ---------------------------------------------------------
        1  |  0:00.00 |  4:43.30 |         0    |    21254   
        2  |  4:43.30 |  3:57.60 |     21255    |    39089   
        3  |  8:41.15 |  3:24.07 |     39090    |    54396   
        4  | 12:05.22 |  3:37.03 |     54397    |    70674   
        5  | 15:42.25 |  4:16.67 |     70675    |    89941   
        6  | 19:59.17 |  3:59.08 |     89942    |   107874   
        7  | 23:58.25 |  3:06.65 |    107875    |   121889   
        8  | 27:05.15 |  4:50.47 |    121890    |   143686   
        9  | 31:55.62 |  3:45.13 |    143687    |   160574   
       10  | 35:41.00 |  2:27.07 |    160575    |   171606   


Track  1

     Filename C:\Documents and Settings\ph\Desktop\New Folder\Ajattara - 2001 - Itse\01 - Yhdeksäs.wav

     Pre-gap length  0:00:02.00

     Peak level 96.6 %
     Track quality 100.0 %
     Test CRC 270D78CA
     Copy CRC 270D78CA
     Accurately ripped (confidence 7)  [B0879249]
     Copy OK

Track  2

     Filename C:\Documents and Settings\ph\Desktop\New Folder\Ajattara - 2001 - Itse\02 - Verivalta.wav

     Peak level 98.4 %
     Track quality 100.0 %
     Test CRC 7A93F7DC
     Copy CRC 7A93F7DC
     Accurately ripped (confidence 8)  [AC99EDD1]
     Copy OK

Track  3

     Filename C:\Documents and Settings\ph\Desktop\New Folder\Ajattara - 2001 - Itse\03 - Musta Aurinko.wav

     Peak level 96.6 %
     Track quality 100.0 %
     Test CRC 1CFAEEEF
     Copy CRC 1CFAEEEF
     Accurately ripped (confidence 7)  [9D32834C]
     Copy OK

Track  4

     Filename C:\Documents and Settings\ph\Desktop\New Folder\Ajattara - 2001 - Itse\04 - Kuolevan Rukous.wav

     Peak level 98.8 %
     Track quality 100.0 %
     Test CRC 0122D1E1
     Copy CRC 0122D1E1
     Accurately ripped (confidence 8)  [A2587196]
     Copy OK

Track  5

     Filename C:\Documents and Settings\ph\Desktop\New Folder\Ajattara - 2001 - Itse\05 - Ägräs.wav

     Peak level 96.6 %
     Track quality 100.0 %
     Test CRC DA88D6B5
     Copy CRC DA88D6B5
     Accurately ripped (confidence 7)  [9BAB7F02]
     Copy OK

Track  6

     Filename C:\Documents and Settings\ph\Desktop\New Folder\Ajattara - 2001 - Itse\06 - Murhamiesi.wav

     Peak level 96.6 %
     Track quality 100.0 %
     Test CRC C93E7764
     Copy CRC C93E7764
     Accurately ripped (confidence 7)  [096DCA8F]
     Copy OK

Track  7

     Filename C:\Documents and Settings\ph\Desktop\New Folder\Ajattara - 2001 - Itse\07 - Tulessa.wav

     Peak level 96.7 %
     Track quality 100.0 %
     Test CRC 0F2C2BD2
     Copy CRC 0F2C2BD2
     Accurately ripped (confidence 8)  [022CAEE2]
     Copy OK

Track  8

     Filename C:\Documents and Settings\ph\Desktop\New Folder\Ajattara - 2001 - Itse\08 - Manan Lapset.wav

     Peak level 96.6 %
     Track quality 100.0 %
     Test CRC 837AEF51
     Copy CRC 837AEF51
     Accurately ripped (confidence 8)  [340B5649]
     Copy OK

Track  9

     Filename C:\Documents and Settings\ph\Desktop\New Folder\Ajattara - 2001 - Itse\09 - Rajan Takaa.wav

     Peak level 96.6 %
     Track quality 100.0 %
     Test CRC 5B338545
     Copy CRC 5B338545
     Accurately ripped (confidence 7)  [2543AA89]
     Copy OK

Track 10

     Filename C:\Documents and Settings\ph\Desktop\New Folder\Ajattara - 2001 - Itse\10 - Vihan Musta Tanssi.wav

     Peak level 93.7 %
     Track quality 99.9 %
     Test CRC E4EA4B15
     Copy CRC E4EA4B15
     Accurately ripped (confidence 7)  [67DF0783]
     Copy OK


All tracks accurately ripped

No errors occurred

End of status report
